<svg width="37" height="38" viewBox="0 0 37 38" fill="none" xmlns="http://www.w3.org/2000/svg">
<g clip-path="url(#clip0_669_37)">
<path d="M36.8046 18.8C36.8046 8.63677 28.5656 0.397705 18.4023 0.397705C8.23906 0.397705 0 8.63662 0 18.8C0 27.9851 6.7295 35.5983 15.527 36.9788V24.1194H10.8545V18.8H15.527V14.7458C15.527 10.1337 18.2744 7.58611 22.4777 7.58611C24.4912 7.58611 26.5971 7.94553 26.5971 7.94553V12.4742H24.2767C21.9905 12.4742 21.2777 13.8928 21.2777 15.3481V18.8H26.3814L25.5656 24.1194H21.2777V36.9788C30.0751 35.5983 36.8046 27.9852 36.8046 18.8Z" fill="#1877F2"/>
<path d="M25.5656 24.1195L26.3814 18.8001H21.2777V15.3482C21.2777 13.8927 21.9906 12.4743 24.2767 12.4743H26.5971V7.9456C26.5971 7.9456 24.4912 7.58618 22.4777 7.58618C18.2744 7.58618 15.527 10.1338 15.527 14.7458V18.8001H10.8545V24.1195H15.527V36.9788C16.4781 37.1279 17.4395 37.2027 18.4023 37.2024C19.3651 37.2027 20.3265 37.1279 21.2777 36.9788V24.1195H25.5656Z" fill="white"/>
</g>
<defs>
<clipPath id="clip0_669_37">
<rect width="36.8046" height="36.8046" fill="white" transform="translate(0 0.397705)"/>
</clipPath>
</defs>
</svg>
