<svg xmlns="http://www.w3.org/2000/svg" width="35" height="35" viewBox="0 0 35 35" fill="none">
  <g clip-path="url(#clip0_761_2)">
    <path d="M32.4172 0.0199074H2.70638C2.03226 0.0130468 1.38296 0.27389 0.900933 0.745203C0.418909 1.21651 0.143542 1.8598 0.135254 2.5339V32.3647C0.145041 33.0378 0.421067 33.6796 0.902927 34.1497C1.38479 34.6198 2.03324 34.8799 2.70638 34.873H32.4172C33.0914 34.8783 33.7402 34.6166 34.222 34.145C34.7038 33.6734 34.9793 33.0303 34.9883 32.3561V2.52533C34.9763 1.8532 34.6995 1.21299 34.218 0.743839C33.7366 0.274691 33.0894 0.0145304 32.4172 0.0199074Z" fill="#0076B2"/>
    <path d="M5.29468 13.0843H10.4684V29.7309H5.29468V13.0843ZM7.88295 4.79956C8.47635 4.79956 9.05641 4.97556 9.54976 5.30529C10.0431 5.63502 10.4276 6.10367 10.6545 6.65196C10.8815 7.20024 10.9407 7.80351 10.8248 8.38546C10.7088 8.96742 10.4228 9.5019 10.003 9.92129C9.58322 10.3407 9.04847 10.6262 8.4664 10.7416C7.88434 10.857 7.28112 10.7972 6.73305 10.5697C6.18499 10.3422 5.71671 9.95731 5.38744 9.46365C5.05818 8.96998 4.88274 8.38975 4.8833 7.79635C4.88406 7.00129 5.20043 6.23905 5.76289 5.67713C6.32535 5.1152 7.08789 4.79956 7.88295 4.79956ZM13.7137 13.0843H18.6731V15.3698H18.7417C19.433 14.0613 21.1186 12.6815 23.6354 12.6815C28.8748 12.6701 29.8461 16.1182 29.8461 20.5891V29.7309H24.6724V21.6319C24.6724 19.7035 24.6381 17.221 21.9842 17.221C19.3302 17.221 18.8788 19.3236 18.8788 21.5062V29.7309H13.7137V13.0843Z" fill="white"/>
  </g>
  <defs>
    <clipPath id="clip0_761_2">
      <rect width="35" height="35" fill="white"/>
    </clipPath>
  </defs>
</svg>