<svg xmlns="http://www.w3.org/2000/svg" width="38" height="38" viewBox="0 0 38 38" fill="none">
<g clip-path="url(#clip0_669_71)">
<path d="M18.894 37.2023C29.0573 37.2023 37.2963 28.9633 37.2963 18.8C37.2963 8.6367 29.0573 0.397705 18.894 0.397705C8.73069 0.397705 0.491699 8.6367 0.491699 18.8C0.491699 28.9633 8.73069 37.2023 18.894 37.2023Z" fill="#FF4500"/>
<path d="M31.1356 18.9753C31.1356 17.4836 29.9292 16.2988 28.459 16.2988C27.7646 16.2978 27.0965 16.5651 26.5944 17.0448C24.7515 15.7283 22.2284 14.8729 19.4203 14.7632L20.6487 9.01521L24.6416 9.87063C24.6857 10.8799 25.5191 11.6917 26.5505 11.6917C27.6035 11.6917 28.459 10.8363 28.459 9.78279C28.459 8.72983 27.6036 7.87427 26.5505 7.87427C25.8046 7.87427 25.1462 8.31305 24.8391 8.94937L20.3857 8.00596C20.254 7.98382 20.1223 8.00596 20.0345 8.0718C19.9248 8.13765 19.8591 8.2472 19.8374 8.37889L18.4768 14.7849C15.6249 14.8729 13.0579 15.7283 11.1932 17.0668C10.691 16.5871 10.0229 16.3199 9.32839 16.3209C7.8365 16.3209 6.65186 17.5273 6.65186 18.9975C6.65186 20.0943 7.30988 21.0155 8.23158 21.4327C8.18682 21.701 8.16479 21.9725 8.16573 22.2445C8.16573 26.3686 12.9705 29.7256 18.8939 29.7256C24.8174 29.7256 29.6221 26.3907 29.6221 22.2445C29.622 21.9726 29.5999 21.7011 29.5563 21.4327C30.4775 21.0155 31.1356 20.0721 31.1356 18.9753ZM12.7508 20.8838C12.7508 19.8309 13.6062 18.9753 14.6597 18.9753C15.7127 18.9753 16.5683 19.8307 16.5683 20.8838C16.5683 21.9369 15.7128 22.7928 14.6597 22.7928C13.6063 22.8144 12.7508 21.9369 12.7508 20.8838ZM23.4352 25.9518C22.1189 27.2683 19.6177 27.3561 18.8939 27.3561C18.148 27.3561 15.647 27.2462 14.3522 25.9518C14.1551 25.7544 14.1551 25.4472 14.3522 25.2498C14.5498 25.0527 14.8568 25.0527 15.0544 25.2498C15.8882 26.0836 17.6434 26.3686 18.8939 26.3686C20.1445 26.3686 21.9213 26.0835 22.733 25.2498C22.9306 25.0527 23.2377 25.0527 23.4352 25.2498C23.6106 25.4472 23.6106 25.7544 23.4352 25.9518ZM23.084 22.8145C22.0309 22.8145 21.1755 21.9591 21.1755 20.906C21.1755 19.8529 22.0309 18.9975 23.084 18.9975C24.1374 18.9975 24.9928 19.8529 24.9928 20.906C24.9928 21.9368 24.1374 22.8145 23.084 22.8145Z" fill="white"/>
</g>
<defs>
<clipPath id="clip0_669_71">
<rect width="36.8046" height="36.8046" fill="white" transform="translate(0.491699 0.397705)"/>
</clipPath>
</defs>
</svg>