<svg width="30" height="30" viewBox="0 0 30 30" fill="none" xmlns="http://www.w3.org/2000/svg">
<g id="fluent:target-arrow-16-regular" clipPath="url(#clip0_106_323)">
<path id="Vector" d="M22.1047 0.535484C22.3104 0.620523 22.4863 0.764687 22.6101 0.949728C22.7338 1.13477 22.7999 1.35237 22.7999 1.57498V7.19998H28.4249C28.6477 7.19959 28.8656 7.26535 29.051 7.38894C29.2364 7.51253 29.3809 7.68838 29.4662 7.89419C29.5515 8.10001 29.5738 8.32652 29.5302 8.54501C29.4867 8.76351 29.3792 8.96414 29.2214 9.12148L24.7214 13.6215C24.6168 13.7259 24.4926 13.8086 24.3559 13.865C24.2192 13.9214 24.0728 13.9502 23.9249 13.95H17.6407L15.9757 15.6172C16.0647 15.9508 16.0758 16.3003 16.0082 16.6389C15.9406 16.9774 15.796 17.2959 15.5857 17.5697C15.3754 17.8434 15.105 18.0652 14.7954 18.2179C14.4858 18.3705 14.1452 18.4499 13.7999 18.45C13.2032 18.45 12.6309 18.2129 12.209 17.791C11.787 17.369 11.5499 16.7967 11.5499 16.2L11.5522 16.0965C11.5676 15.7604 11.6582 15.432 11.8174 15.1356C11.9765 14.8391 12.2001 14.5821 12.4716 14.3835C12.7432 14.1849 13.0559 14.0497 13.3866 13.9879C13.7174 13.9262 14.0577 13.9393 14.3827 14.0265L16.0499 12.3592V6.07498C16.0497 5.92715 16.0786 5.78071 16.1349 5.64404C16.1913 5.50737 16.274 5.38315 16.3784 5.27848L20.8784 0.778484C21.0359 0.621249 21.2364 0.514237 21.4547 0.470984C21.673 0.42773 21.8992 0.450176 22.1047 0.535484ZM23.4592 11.7L25.7092 9.44998H21.6749C21.3766 9.44998 21.0904 9.33146 20.8795 9.12048C20.6685 8.9095 20.5499 8.62335 20.5499 8.32498V4.29073L18.2999 6.54073V11.7H23.4592ZM27.1762 14.346C27.5644 17.1476 27.0629 20.0003 25.7425 22.5015C24.422 25.0027 22.3494 27.026 19.8171 28.2858C17.2848 29.5456 14.4209 29.9782 11.6294 29.5227C8.83804 29.0671 6.26022 27.7463 4.25989 25.7467C2.25956 23.7472 0.937768 21.1699 0.481101 18.3787C0.0244341 15.5874 0.455963 12.7233 1.71477 10.1905C2.97358 7.65774 4.99608 5.5843 7.49675 4.2629C9.99743 2.94149 12.85 2.43887 15.6517 2.82598L14.7899 3.68773C14.4333 4.04442 14.1611 4.47651 13.9935 4.95223L13.7999 4.94998C11.5667 4.95031 9.38416 5.61529 7.53014 6.86022C5.67613 8.10516 4.23458 9.87372 3.38908 11.9407C2.54358 14.0077 2.33238 16.2795 2.78237 18.4669C3.23237 20.6543 4.32321 22.6583 5.91597 24.2236C7.50872 25.789 9.53133 26.8449 11.7262 27.2569C13.9211 27.6689 16.1889 27.4183 18.2409 26.5371C20.2929 25.6558 22.0362 24.1838 23.2488 22.3085C24.4613 20.4332 25.0884 18.2394 25.0499 16.0065C25.5239 15.8389 25.9543 15.5675 26.3099 15.2122L27.1762 14.346ZM13.7999 8.32498C12.2424 8.32498 10.7199 8.78684 9.42483 9.65216C8.1298 10.5175 7.12044 11.7474 6.5244 13.1864C5.92836 14.6253 5.77241 16.2087 6.07627 17.7363C6.38012 19.2639 7.13015 20.6671 8.23148 21.7684C9.33282 22.8698 10.736 23.6198 12.2636 23.9237C13.7912 24.2275 15.3746 24.0716 16.8136 23.4755C18.2525 22.8795 19.4825 21.8701 20.3478 20.5751C21.2131 19.2801 21.6749 17.7575 21.6749 16.2H19.4249C19.4249 17.3125 19.095 18.4 18.477 19.3251C17.8589 20.2501 16.9804 20.9711 15.9525 21.3968C14.9247 21.8225 13.7937 21.9339 12.7026 21.7169C11.6114 21.4999 10.6091 20.9641 9.82247 20.1775C9.0358 19.3908 8.50007 18.3885 8.28303 17.2974C8.06599 16.2062 8.17738 15.0752 8.60313 14.0474C9.02887 13.0196 9.74984 12.1411 10.6749 11.523C11.5999 10.9049 12.6874 10.575 13.7999 10.575V8.32498Z" fill="url(#paint0_linear_106_323)"/>
</g>
<defs>
<linearGradient id="paint0_linear_106_323" x1="0.303955" y1="15.0742" x2="29.552" y2="15.0742" gradientUnits="userSpaceOnUse">
<stop stopColor="#A2FF9A"/>
<stop offset="1" stopColor="#3CEB4E"/>
</linearGradient>
<clipPath id="clip0_106_323">
<rect width="30" height="30" fill="white"/>
</clipPath>
</defs>
</svg>
