<svg width="30" height="32" viewBox="0 0 30 32" fill="none" xmlns="http://www.w3.org/2000/svg">
<g id="fluent:target-arrow-16-regular">
<path id="Vector" fill-rule="evenodd" clip-rule="evenodd" d="M14.7292 2.25976C14.3308 1.79146 13.8354 1.41531 13.2773 1.15736C12.7192 0.899407 12.1117 0.765808 11.4968 0.765808C10.882 0.765808 10.2745 0.899407 9.71637 1.15736C9.15826 1.41531 8.66286 1.79146 8.26446 2.25976L8.20504 2.33049C8.05969 2.50102 7.8759 2.63457 7.66882 2.72016C7.46173 2.80575 7.23728 2.84092 7.01395 2.82278L6.922 2.8157C6.30937 2.7666 5.69339 2.85115 5.11666 3.06351C4.53992 3.27586 4.01619 3.61094 3.58167 4.04559C3.14716 4.48023 2.81224 5.00407 2.60007 5.58087C2.38789 6.15768 2.30353 6.77368 2.35282 7.38629L2.35848 7.47824C2.37662 7.70158 2.34145 7.92603 2.25587 8.13311C2.17028 8.34019 2.03672 8.52398 1.8662 8.66934L1.79547 8.72875C1.32716 9.12715 0.951018 9.62255 0.693066 10.1807C0.435113 10.7388 0.301514 11.3463 0.301514 11.9611C0.301514 12.576 0.435113 13.1835 0.693066 13.7416C0.951018 14.2997 1.32716 14.7951 1.79547 15.1935L1.8662 15.2529C2.03672 15.3983 2.17028 15.5821 2.25587 15.7891C2.34145 15.9962 2.37662 16.2207 2.35848 16.444L2.35141 16.536C2.26715 17.5879 2.57758 18.6335 3.22222 19.4691C3.86686 20.3046 4.79951 20.8702 5.83841 21.0556V30.351C5.83837 30.6071 5.90786 30.8584 6.03946 31.0781C6.17106 31.2978 6.35984 31.4777 6.58565 31.5985C6.81147 31.7193 7.06584 31.7766 7.32165 31.7641C7.57745 31.7517 7.82508 31.6701 8.03812 31.5279L11.4968 29.2221L14.9555 31.5279C15.1686 31.6701 15.4162 31.7517 15.672 31.7641C15.9278 31.7766 16.1822 31.7193 16.408 31.5985C16.6338 31.4777 16.8226 31.2978 16.9542 31.0781C17.0858 30.8584 17.1553 30.6071 17.1553 30.351V21.057C18.1944 20.8716 19.1273 20.3058 19.7719 19.47C20.4166 18.6341 20.7269 17.5881 20.6423 16.536L20.6352 16.444C20.617 16.2207 20.6522 15.9962 20.7378 15.7891C20.8234 15.5821 20.9569 15.3983 21.1275 15.2529L21.1982 15.1935C21.6665 14.7951 22.0426 14.2997 22.3006 13.7416C22.5585 13.1835 22.6921 12.576 22.6921 11.9611C22.6921 11.3463 22.5585 10.7388 22.3006 10.1807C22.0426 9.62255 21.6665 9.12715 21.1982 8.72875L21.1275 8.66934C20.9569 8.52398 20.8234 8.34019 20.7378 8.13311C20.6522 7.92603 20.617 7.70158 20.6352 7.47824L20.6423 7.38629C20.6913 6.77367 20.6068 6.15769 20.3944 5.58095C20.1821 5.00421 19.847 4.48048 19.4124 4.04597C18.9777 3.61146 18.4539 3.27653 17.8771 3.06436C17.3003 2.85219 16.6843 2.76783 16.0717 2.81712L15.9797 2.82278C15.7564 2.84092 15.5319 2.80575 15.3248 2.72016C15.1178 2.63457 14.934 2.50102 14.7886 2.33049L14.7292 2.25976ZM8.66762 27.7085V22.0756C9.44597 22.7709 10.4531 23.1552 11.4968 23.1552C12.5405 23.1552 13.5477 22.7709 14.326 22.0756V27.7057L12.2819 26.3434C12.0495 26.1883 11.7763 26.1055 11.4968 26.1055C11.2174 26.1055 10.9442 26.1883 10.7117 26.3434L8.66762 27.7085ZM15.3262 11.5466C15.5838 11.2798 15.7264 10.9225 15.7232 10.5516C15.72 10.1807 15.5712 9.82591 15.3089 9.56363C15.0467 9.30135 14.6919 9.15257 14.3209 9.14935C13.95 9.14613 13.5927 9.28871 13.3259 9.54639L10.0822 12.7901L9.66775 12.3756C9.40095 12.1179 9.04362 11.9753 8.67271 11.9786C8.30181 11.9818 7.94701 12.1306 7.68473 12.3928C7.42245 12.6551 7.27367 13.0099 7.27045 13.3808C7.26723 13.7517 7.40981 14.1091 7.66749 14.3759L9.0821 15.7905C9.34738 16.0557 9.70712 16.2046 10.0822 16.2046C10.4573 16.2046 10.8171 16.0557 11.0824 15.7905L15.3262 11.5466Z" fill="url(#paint0_linear_106_287)"/>
</g>
<defs>
<linearGradient id="paint0_linear_106_287" x1="0.301514" y1="16.2658" x2="22.6921" y2="16.2658" gradientUnits="userSpaceOnUse">
<stop stopColor="#A2FF9A"/>
<stop offset="1" stopColor="#3CEB4E"/>
</linearGradient>
</defs>
</svg>
