<svg width="38" height="38" viewBox="0 0 38 38" fill="none" xmlns="http://www.w3.org/2000/svg">
<g clip-path="url(#clip0_669_61)">
<path d="M1.52584 18.5799C1.52498 21.6722 2.33297 24.6916 3.86935 27.353L1.37891 36.446L10.6845 34.0061C13.2583 35.4072 16.142 36.1414 19.0725 36.1416H19.0802C28.7543 36.1416 36.6292 28.2695 36.6333 18.5938C36.6352 13.9052 34.8109 9.49631 31.4965 6.17933C28.1827 2.86263 23.7754 1.0351 19.0795 1.03296C9.40431 1.03296 1.52998 8.90458 1.52598 18.5799" fill="url(#paint0_linear_669_61)"/>
<path d="M0.89971 18.5741C0.898711 21.7776 1.73566 24.905 3.32682 27.6617L0.74707 37.0807L10.3863 34.5533C13.0422 36.0013 16.0325 36.7648 19.0753 36.766H19.0832C29.1043 36.766 37.2621 28.6107 37.2664 18.5886C37.2681 13.7315 35.3782 9.1642 31.9454 5.72838C28.5122 2.293 23.9473 0.399702 19.0832 0.397705C9.06035 0.397705 0.903704 8.55179 0.89971 18.5741ZM6.64009 27.1869L6.28018 26.6156C4.76719 24.2099 3.96862 21.4298 3.96976 18.5752C3.97304 10.2449 10.7525 3.46761 19.0889 3.46761C23.126 3.46932 26.92 5.04308 29.7737 7.89843C32.6272 10.7541 34.1973 14.5501 34.1963 18.5875C34.1926 26.9177 27.413 33.6959 19.0832 33.6959H19.0772C16.3649 33.6945 13.7049 32.9661 11.385 31.5896L10.833 31.2622L5.11284 32.762L6.64009 27.1868V27.1869Z" fill="url(#paint1_linear_669_61)"/>
<path d="M14.538 10.975C14.1976 10.2185 13.8394 10.2033 13.5157 10.19C13.2507 10.1786 12.9477 10.1795 12.645 10.1795C12.342 10.1795 11.8497 10.2934 11.4336 10.7478C11.017 11.2026 9.84326 12.3016 9.84326 14.5368C9.84326 16.7722 11.4714 18.9324 11.6983 19.2358C11.9256 19.5387 14.8414 24.2725 19.4594 26.0936C23.2973 27.607 24.0784 27.306 24.9113 27.2301C25.7444 27.1545 27.5995 26.1314 27.978 25.0705C28.3567 24.0097 28.3567 23.1004 28.2432 22.9104C28.1296 22.7211 27.8266 22.6074 27.3722 22.3803C26.9178 22.1531 24.6841 21.0539 24.2677 20.9023C23.8511 20.7508 23.5483 20.6752 23.2453 21.1301C22.9423 21.5843 22.0722 22.6074 21.807 22.9104C21.5421 23.2141 21.2769 23.2519 20.8227 23.0247C20.3681 22.7967 18.9049 22.3176 17.169 20.7699C15.8183 19.5656 14.9065 18.0785 14.6414 17.6235C14.3764 17.1693 14.613 16.9231 14.8408 16.6967C15.045 16.4932 15.2953 16.1662 15.5227 15.901C15.7493 15.6357 15.8249 15.4464 15.9764 15.1434C16.128 14.8401 16.0521 14.5748 15.9387 14.3475C15.8249 14.1203 14.942 11.8733 14.538 10.975Z" fill="white"/>
</g>
<defs>
<linearGradient id="paint0_linear_669_61" x1="1764.1" y1="3542.34" x2="1764.1" y2="1.03296" gradientUnits="userSpaceOnUse">
<stop stop-color="#1FAF38"/>
<stop offset="1" stop-color="#60D669"/>
</linearGradient>
<linearGradient id="paint1_linear_669_61" x1="1826.71" y1="3668.69" x2="1826.71" y2="0.397705" gradientUnits="userSpaceOnUse">
<stop stop-color="#F9F9F9"/>
<stop offset="1" stop-color="white"/>
</linearGradient>
<clipPath id="clip0_669_61">
<rect width="36.5207" height="36.8046" fill="white" transform="translate(0.746094 0.397705)"/>
</clipPath>
</defs>
</svg>
